<svg xmlns="http://www.w3.org/2000/svg" width="1281" height="1280" fill="none"><path fill-rule="evenodd" clip-rule="evenodd" d="M815.931 94.644c9.719 12.065 14.675 28.346 24.588 60.909l216.541 711.348c-80.061-41.533-167.096-71.488-258.886-87.649L657.182 302.798a18.35 18.35 0 0 0-35.21.055L482.688 779.011c-92.217 16.089-179.65 46.098-260.054 87.782L440.24 155.388c9.943-32.506 14.914-48.759 24.634-60.803A80.003 80.003 0 0 1 497.293 70.6c14.359-5.772 31.356-5.772 65.349-5.772h155.425c34.037 0 51.056 0 65.429 5.784a79.994 79.994 0 0 1 32.435 24.032Z" fill="url(#a)"/><path fill-rule="evenodd" clip-rule="evenodd" d="M841.843 900.754c-35.697 30.525-106.948 51.343-189.021 51.343-100.733 0-185.163-31.36-207.566-73.536-8.009 24.171-9.806 51.835-9.806 69.507 0 0-5.277 86.772 55.078 147.132 0-31.34 25.406-56.74 56.745-56.74 53.716 0 53.656 46.86 53.607 84.88l-.003 3.39c0 57.71 35.27 107.18 85.431 128.04-7.492-15.41-11.695-32.72-11.695-51 0-55.04 32.313-75.54 69.867-99.36h.001c29.88-18.95 63.079-40 85.959-82.24 11.939-22.04 18.718-47.277 18.718-74.102 0-16.495-2.564-32.392-7.315-47.314Z" fill="#FF5D01"/><path fill-rule="evenodd" clip-rule="evenodd" d="M841.843 900.754c-35.697 30.525-106.948 51.343-189.021 51.343-100.733 0-185.163-31.36-207.566-73.536-8.009 24.171-9.806 51.835-9.806 69.507 0 0-5.277 86.772 55.078 147.132 0-31.34 25.406-56.74 56.745-56.74 53.716 0 53.656 46.86 53.607 84.88l-.003 3.39c0 57.71 35.27 107.18 85.431 128.04-7.492-15.41-11.695-32.72-11.695-51 0-55.04 32.313-75.54 69.867-99.36h.001c29.88-18.95 63.079-40 85.959-82.24 11.939-22.04 18.718-47.277 18.718-74.102 0-16.495-2.564-32.392-7.315-47.314Z" fill="url(#b)"/><defs><linearGradient id="a" x1="883.889" y1="27.113" x2="639.848" y2="866.902" gradientUnits="userSpaceOnUse"><stop stop-color="#fff"/><stop offset="1" stop-color="#F9FAFB"/></linearGradient><linearGradient id="b" x1="1002.57" y1="652.45" x2="791.219" y2="1094.91" gradientUnits="userSpaceOnUse"><stop stop-color="#FF1639"/><stop offset="1" stop-color="#FF1639" stop-opacity="0"/></linearGradient></defs></svg>