<svg xmlns="http://www.w3.org/2000/svg" width="132" height="32" fill="none"><g clip-path="url(#a)"><path fill="#00DC82" d="M26.83 31.423h17.588c.559 0 1.108-.143 1.592-.414.483-.27.885-.66 1.164-1.13.28-.47.426-1.002.426-1.544 0-.541-.148-1.074-.427-1.543L35.36 6.947c-.28-.47-.681-.859-1.165-1.13a3.258 3.258 0 0 0-3.182 0c-.483.271-.885.66-1.164 1.13l-3.02 5.078-5.906-9.93A3.137 3.137 0 0 0 19.76.965a3.26 3.26 0 0 0-3.182 0c-.484.271-.886.661-1.165 1.13L.713 26.792a3.015 3.015 0 0 0-.001 3.087c.279.47.68.86 1.164 1.13a3.257 3.257 0 0 0 1.592.414h11.04c4.375 0 7.6-1.864 9.82-5.5l5.39-9.053 2.886-4.845 8.664 14.553h-11.55l-2.889 4.845Zm-12.502-4.85-7.705-.002 11.55-19.403 5.763 9.702-3.858 6.484c-1.475 2.36-3.15 3.219-5.75 3.219Z"/><path fill="#fff" d="M60.65 31.132V19.577c0-3.306-.344-6.613-.344-6.613s1.308 3.016 2.96 5.85l7.058 12.318h5.543V5.697H70.67v11.555c0 3.306.344 6.65.344 6.65s-1.308-3.053-2.927-5.887L60.995 5.697h-5.508v25.435h5.164ZM92.246 12.819v10.029c0 2.325-1.48 4.07-3.58 4.07-1.963 0-3.34-1.6-3.34-3.816V12.819H80.54v11.41c0 4.178 2.548 7.194 6.438 7.194 2.376 0 4.304-1.09 5.268-2.834v2.543h4.82V12.82h-4.82ZM111.082 21.612l5.819-8.793h-5.268l-3.167 4.833-3.168-4.833h-5.233l5.819 8.757-6.266 9.556h5.13L108.5 25.5l3.718 5.632h5.096l-6.232-9.52ZM122.281 12.819h-3.34v4.215h3.34v7.449c0 4.25 2.582 6.65 6.576 6.65h2.857V26.88h-2.203c-1.549 0-2.445-.836-2.445-2.616v-7.231h4.648v-4.215h-4.648V7.405h-4.785v5.414Z"/></g><defs><clipPath id="a"><path fill="#fff" d="M.286 0h131.429v32H.285z"/></clipPath></defs></svg>