<svg viewBox="30 31 400 50" xmlns="http://www.w3.org/2000/svg"><path d="m348.645 80.06-13.44-24.906-8.46 10.208V80.06h-7.097V32.424h7.097v23.07l18.424-23.07h8.187l-13.37 16.741 16.988 30.895h-8.329Zm23.674 0V32.424h7.097V80.06h-7.097Zm44.075-40.83v40.83H409.3V39.23h-13.511v-6.806h34.113v6.806h-13.508Z" fill="#8D8D93"/><path d="M48.336 80.876c-3.89.098-7.72-.982-10.984-3.096a15.871 15.871 0 0 1-6.413-8.472l6.685-2.45a12.319 12.319 0 0 0 4.368 5.27 11.523 11.523 0 0 0 6.62 1.944 9.735 9.735 0 0 0 6.31-1.906 6.608 6.608 0 0 0 2.354-5.444 5.944 5.944 0 0 0-.648-2.756 8.255 8.255 0 0 0-1.467-2.077 9.905 9.905 0 0 0-2.525-1.667c-1.138-.566-2.082-.997-2.832-1.293a81.708 81.708 0 0 0-3.309-1.19c-1.819-.636-3.183-1.134-4.093-1.497a30.846 30.846 0 0 1-3.582-1.804 13.22 13.22 0 0 1-3.342-2.518 12.176 12.176 0 0 1-2.013-3.3 11.763 11.763 0 0 1-.567-7.218 11.786 11.786 0 0 1 3.77-6.188c2.731-2.403 6.439-3.605 11.122-3.606 3.912 0 7.13.862 9.655 2.586a12.508 12.508 0 0 1 5.083 6.874l-6.55 2.177a7.61 7.61 0 0 0-3.174-3.504 10.676 10.676 0 0 0-5.56-1.328 8.589 8.589 0 0 0-5.356 1.497 5.025 5.025 0 0 0-1.944 4.22 4.39 4.39 0 0 0 1.5 3.266c.907.89 1.971 1.606 3.14 2.11 1.091.453 2.752 1.065 4.98 1.836 1.364.5 2.376.874 3.035 1.123.66.248 1.626.668 2.898 1.26 1.02.45 2.002.984 2.933 1.596a25.656 25.656 0 0 1 2.389 1.94c.823.711 1.525 1.55 2.081 2.483.53.969.943 1.997 1.229 3.062.347 1.252.52 2.547.511 3.846 0 4.446-1.524 7.928-4.572 10.445-3.047 2.517-6.958 3.777-11.732 3.779Zm43.733-.816L75.695 32.424h7.642l10.848 33.21c.599 1.785 1.1 3.603 1.5 5.444.4-1.841.901-3.66 1.502-5.445l10.712-33.209h7.573L99.165 80.06h-7.096Zm37.866 0V32.424h29.611v6.67h-22.515v13.065h14.532v6.67h-14.532V73.39h24.019v6.67h-31.115Zm49.191 0V32.424h7.097v40.83h23.333v6.806h-30.43Zm57.175-40.83v40.83h-7.097V39.23h-13.508v-6.806h34.117v6.806h-13.512Zm28.177 40.83V32.424h29.61v6.67h-22.514v13.065h14.532v6.67h-14.532V73.39h24.019v6.67h-31.115Z" fill="#efefef"/></svg>